<?xml version="1.0" encoding="UTF-8" standalone="no"?>
<!-- Created with Inkscape (http://www.inkscape.org/) -->

<svg
   width="512"
   height="221.48392"
   viewBox="0 0 512 221.48392"
   version="1.1"
   id="svg1"
   xmlns="http://www.w3.org/2000/svg"
   xmlns:svg="http://www.w3.org/2000/svg">
  <defs
     id="defs1" />
  <g
     id="layer3"
     style="fill:#ff8811;fill-opacity:1"
     transform="translate(0,-142.14056)">
    <rect
       style="fill:#2274a5;fill-opacity:1;stroke-width:0.852981"
       id="rect11"
       width="512"
       height="221.48392"
       x="0"
       y="142.14056" />
  </g>
  <g
     id="layer1"
     transform="matrix(0.86316741,0,-0.23128501,0.654321,131.66886,-40.428562)"
     style="fill:#e7dfc6;fill-opacity:1">
    <g
       id="g1"
       transform="translate(-16.043512,8.0108949)"
       style="fill:#e7dfc6;fill-opacity:1">
      <rect
         style="fill:#e7dfc6;fill-opacity:1"
         id="rect1"
         width="39.009525"
         height="225.69795"
         x="330.88434"
         y="114.93877" />
      <path
         style="fill:#e7dfc6;fill-opacity:1;stroke-width:0.767793"
         id="rect1-8"
         width="39.009525"
         height="133.05034"
         x="114.93877"
         y="-463.93469"
         transform="rotate(90)"
         d="m 114.93877,-463.93469 h 29.00952 a 10,10 45 0 1 10,10 v 123.05034 h -39.00952 z" />
      <path
         style="fill:#131b23;fill-opacity:1;stroke-width:0.512139"
         id="rect1-8-5"
         width="39.009525"
         height="59.197498"
         x="208.28299"
         y="-438.16052"
         transform="rotate(90,3.4654194,3.4654195)"
         d="m 208.28299,-438.16052 h 29.00952 a 10,10 45 0 1 10,10 l 0,49.1975 h -29.00952 a 10,10 45 0 1 -10,-10 z" />
    </g>
    <g
       id="layer1-4"
       transform="translate(-281.62445,7.0394747)"
       style="fill:#e7dfc6;fill-opacity:1">
      <path
         style="fill:#e7dfc6;fill-opacity:1"
         id="rect1-2"
         width="39.009525"
         height="225.69795"
         x="298.36456"
         y="115.91019"
         d="m 298.36456,115.91019 h 39.00953 v 215.69795 a 10,10 135 0 1 -10,10 h -29.00953 z" />
      <rect
         style="fill:#e7dfc6;fill-opacity:1;stroke-width:0.767793"
         id="rect1-8-3"
         width="39.009525"
         height="133.05034"
         x="115.91019"
         y="-431.41492"
         transform="rotate(90)" />
      <path
         style="fill:#e7dfc6;fill-opacity:1;stroke-width:0.767793"
         id="rect1-8-5-2"
         width="39.009525"
         height="133.05037"
         x="209.25441"
         y="-431.41492"
         transform="rotate(90)"
         d="m 209.25441,-431.41492 h 29.00953 a 10,10 45 0 1 10,10 v 123.05037 h -39.00953 z" />
      <path
         style="fill:#e7dfc6;fill-opacity:1;stroke-width:0.765781"
         id="rect1-8-5-2-8"
         width="39.009525"
         height="132.35374"
         x="-431.41492"
         y="-248.26395"
         transform="scale(-1)"
         d="m -421.41492,-248.26395 29.00953,0 v 132.35375 h -39.00953 v -122.35375 a 10,10 135 0 1 10,-10 z" />
      <path
         style="fill:#131b23;fill-opacity:1;stroke-width:0.512139"
         id="rect1-8-5-3"
         width="39.009525"
         height="59.197498"
         x="208.28299"
         y="-438.16052"
         transform="rotate(90,-78.383692,-77.412281)"
         d="m 208.28299,-438.16052 h 29.00952 a 10,10 45 0 1 10,10 l 0,49.1975 h -29.00952 a 10,10 45 0 1 -10,-10 z" />
    </g>
    <g
       id="layer1-4-5"
       transform="translate(411.02307,334.18808)"
       style="display:inline;fill:#e7dfc6;fill-opacity:1">
      <rect
         style="fill:#e7dfc6;fill-opacity:1"
         id="rect1-2-4"
         width="39.009525"
         height="225.69795"
         x="-245.2326"
         y="-211.23842" />
      <path
         style="fill:#e7dfc6;fill-opacity:1;stroke-width:0.767793"
         id="rect1-8-3-3"
         width="39.009525"
         height="133.05034"
         x="-211.23842"
         y="112.18224"
         transform="rotate(90)"
         d="m -201.23842,112.18224 h 29.00953 v 133.05034 h -39.00953 V 122.18224 a 10,10 135 0 1 10,-10 z" />
      <path
         style="fill:#e7dfc6;fill-opacity:1;stroke-width:0.767793"
         id="rect1-8-5-2-1"
         width="39.009525"
         height="133.05037"
         x="-24.54998"
         y="112.18224"
         transform="rotate(90)"
         d="M -24.54998,112.18224 H 4.4595451 a 10,10 45 0 1 9.9999999,10 V 245.23261 H -24.54998 Z" />
      <path
         style="fill:#e7dfc6;fill-opacity:1;stroke-width:1"
         id="rect1-8-5-2-8-2"
         width="39.009525"
         height="225.69795"
         x="153.58727"
         y="147.54726"
         transform="rotate(180,20.702511,81.003395)"
         d="m 163.58727,147.54726 h 29.00952 v 225.69795 h -29.00952 a 10,10 45 0 1 -10,-10 V 157.54726 a 10,10 135 0 1 10,-10 z" />
    </g>
  </g>
</svg>
